HIERARCHY
ROOT hip
{
	OFFSET 0.000000 0.000000 0.000000 
	CHANNELS 6 Xposition Yposition Zposition Xrotation Zrotation Yrotation
	JOINT abdomen
	{
		OFFSET 0.000000 3.402643 0.000000 
		CHANNELS 3 Xrotation Zrotation Yrotation
		JOINT chest
		{
			OFFSET 0.000000 8.438565 -0.680529 
			CHANNELS 3 Xrotation Zrotation Yrotation
			JOINT neck
			{
				OFFSET 0.000000 10.207942 -0.272212 
				CHANNELS 3 Xrotation Zrotation Yrotation
				JOINT head
				{
					OFFSET 0.000000 3.130431 0.000000 
					CHANNELS 3 Xrotation Zrotation Yrotation
					End Site
					{
						OFFSET 0.000000 3.130435 0.000000 
					}
				}
			}
			JOINT lCollar
			{
				OFFSET 3.470700 6.669187 -0.816635 
				CHANNELS 3 Yrotation Zrotation Xrotation
				JOINT lShldr
				{
					OFFSET 3.198488 0.000000 0.000000 
					CHANNELS 3 Zrotation Yrotation Xrotation
					JOINT lForeArm
					{
						OFFSET 10.139888 0.000000 0.000000 
						CHANNELS 3 Yrotation Zrotation Xrotation
						JOINT lHand
						{
							OFFSET 8.370511 0.000000 0.000000 
							CHANNELS 3 Zrotation Yrotation Xrotation
							End Site
							{
								OFFSET 4.083176 0.000000 0.000000 
							}
						}
					}
				}
			}
			JOINT rCollar
			{
				OFFSET -3.470700 6.669187 -0.816635 
				CHANNELS 3 Yrotation Zrotation Xrotation
				JOINT rShldr
				{
					OFFSET -3.198488 0.000000 0.000000 
					CHANNELS 3 Zrotation Yrotation Xrotation
					JOINT rForeArm
					{
						OFFSET -10.139888 0.000000 0.000000 
						CHANNELS 3 Yrotation Zrotation Xrotation
						JOINT rHand
						{
							OFFSET -8.370511 0.000000 0.000000 
							CHANNELS 3 Zrotation Yrotation Xrotation
							End Site
							{
								OFFSET -4.083176 0.000000 0.000000 
							}
						}
					}
				}
			}
		}
	}
	JOINT lThigh
	{
		OFFSET 5.308129 -1.633274 1.361059 
		CHANNELS 3 Xrotation Zrotation Yrotation
		JOINT lShin
		{
			OFFSET -2.041588 -20.007561 0.000000 
			CHANNELS 3 Xrotation Zrotation Yrotation
			JOINT lFoot
			{
				OFFSET 0.000000 -19.190928 -1.224953 
				CHANNELS 3 Xrotation Yrotation Zrotation
				End Site
				{
					OFFSET 0.000000 -2.449906 4.627600 
				}
			}
		}
	}
	JOINT rThigh
	{
		OFFSET -5.308129 -1.633274 1.361059 
		CHANNELS 3 Xrotation Zrotation Yrotation
		JOINT rShin
		{
			OFFSET 2.041588 -20.007561 0.000000 
			CHANNELS 3 Xrotation Zrotation Yrotation
			JOINT rFoot
			{
				OFFSET 0.000000 -19.190928 -1.224953 
				CHANNELS 3 Xrotation Yrotation Zrotation
				End Site
				{
					OFFSET 0.000000 -2.449906 4.627600 
				}
			}
		}
	}
}
MOTION
Frames: 18
Frame Time: 0.125000
0.817434 53.718891 0.319157 0.000000 0.000000 0.000000 0.386418 0.078759 -0.012004 -0.256704 -0.012910 -0.115113 -2.574532 -1.362167 0.260832 -1.055014 -1.024317 0.002206 0.295707 3.706243 0.649559 -80.090179 10.094073 15.989038 -22.536488 -9.349968 0.132058 8.138763 -0.329497 -1.243013 -0.517056 -4.196613 0.602215 80.501709 -6.418766 15.630506 13.994238 6.363006 0.983108 -2.811463 5.622548 -1.475455 -5.816685 2.857898 0.108097 12.279718 -3.136223 -0.482662 -6.778389 1.091077 0.006004 -5.908698 -5.241153 0.117082 12.480851 3.120473 0.319266 -6.905432 -1.427760 2.081830 
1.616305 53.913601 0.244129 0.000000 0.000000 0.000000 0.749627 0.139974 -0.031803 -0.592310 -0.037000 -0.225312 -5.757330 -3.019660 0.596156 -2.324980 -2.214530 0.013376 -1.775930 13.037988 1.463990 -90.060165 9.885670 16.048800 -22.485201 -9.328300 0.136879 9.403810 -0.441501 -3.112450 1.251720 -12.876521 1.364910 88.761009 -4.713940 15.561700 10.837900 5.264130 1.291640 -0.422692 8.045620 -3.437540 -4.953509 1.805527 0.066840 10.038667 -3.001580 -0.277177 -5.416463 1.151286 0.874642 -4.954569 -6.111100 0.105531 10.071378 2.980199 0.092888 -5.431526 -1.306272 3.111904 
1.900428 53.856937 -0.019589 0.000000 0.000000 0.000000 0.884192 0.141326 -0.054702 -0.915613 -0.066177 -0.270157 -8.525320 -4.413720 0.907541 -3.376780 -3.130960 0.036118 -3.456830 16.808372 2.076040 -94.244217 8.898510 16.206600 -22.299601 -9.233840 0.165409 7.769730 -0.241183 -4.987080 2.642710 -12.990220 1.938550 86.410835 -8.283970 16.194901 22.515400 9.331130 0.152796 -1.354590 1.474210 -5.066080 -5.309512 1.461003 0.071584 10.076133 -3.012745 -0.280449 -5.111109 1.175269 1.224248 -5.303191 -6.456789 0.103633 10.100794 2.984084 0.095041 -5.092728 -1.252769 3.459993 
1.815124 53.434502 -0.124647 0.000000 0.000000 0.000000 1.090547 0.230181 -0.034370 -0.841079 -0.030438 -0.326604 -8.126865 -4.233254 0.835160 -3.300905 -3.153265 0.015010 -3.261812 16.100510 2.151296 -93.723564 8.382042 16.215948 -21.772697 -9.286470 0.228527 7.636019 -0.298559 -4.900937 2.612767 -8.928617 1.992323 82.246780 -7.836957 16.303064 23.705919 9.983288 0.082367 -2.200259 -0.118637 -5.158311 -8.032195 1.726786 0.200959 15.765966 -3.358582 -0.807401 -8.066228 1.264318 1.407285 -8.308896 -6.647347 0.195305 16.304905 3.335968 0.675667 -8.301224 -1.341765 3.203392 
1.588065 52.874580 -0.067029 0.000000 0.000000 0.000000 1.513670 0.371094 0.000000 -0.390622 0.009750 -0.439450 -5.212830 -2.835280 0.446754 -2.368080 -2.537750 -0.048768 -1.923930 12.503065 1.766250 -90.609795 7.866410 16.111099 -20.529200 -8.611710 0.390751 9.327760 -1.348270 -3.694140 1.593150 -3.749084 1.643850 78.681366 -4.970130 16.068001 17.497900 7.591150 0.737828 -2.962360 3.005060 -4.061910 -11.258701 2.253158 0.316695 22.702023 -3.703945 -1.482624 -11.743346 1.321290 1.424811 -11.495235 -6.626107 0.297698 23.126839 3.680140 1.343994 -11.935324 -1.447342 2.680725 
1.388259 52.430901 0.051480 0.000000 0.000000 0.000000 2.192844 0.487800 0.007642 0.294025 -0.022269 -0.628110 -1.242403 -0.954841 -0.083175 -1.111793 -1.714710 -0.136940 -0.578352 7.201646 1.097222 -86.540321 6.570697 15.999683 -18.328629 -6.377296 0.700914 11.766952 -3.897783 -2.743282 0.313745 1.000715 1.104604 75.293381 -4.030032 16.032784 14.534869 5.155734 1.026005 -4.679783 6.322100 -2.472486 -13.207054 2.656173 0.367862 27.131054 -3.870112 -1.920796 -14.206977 1.327346 1.376169 -13.409876 -6.527894 0.352952 27.456129 3.839204 1.782611 -14.353964 -1.530246 2.268439 
1.234996 52.125446 0.199637 0.000000 0.000000 0.000000 3.047432 0.587965 -0.006098 1.112284 -0.110650 -0.881865 3.238587 1.168217 -0.685745 0.289281 -0.811768 -0.239527 0.629159 0.990879 0.263999 -81.985199 4.784874 15.900991 -15.623709 -3.156224 1.085751 14.399264 -7.588593 -2.131535 -1.005247 5.144381 0.462227 71.934288 -5.183747 16.215521 15.609814 3.308869 0.864464 -7.238639 9.038823 -0.647002 -14.383659 2.945528 0.378068 30.016134 -3.956086 -2.227710 -15.901606 1.346309 1.311009 -14.480732 -6.431494 0.378607 30.094677 3.926870 2.051624 -15.920162 -1.577364 1.976702 
1.110134 51.922245 0.363830 0.000000 0.000000 0.000000 3.966815 0.700242 -0.024348 1.973860 -0.216430 -1.182464 7.912644 3.417845 -1.318481 1.745166 0.119120 -0.348622 1.800190 -5.432335 -0.627759 -77.122673 3.066635 15.812227 -13.040476 0.127191 1.441474 16.801283 -11.845697 -1.618718 -2.271046 8.848314 -0.226594 68.523727 -7.553497 16.503088 19.053091 2.090090 0.423454 -10.236835 11.293948 1.267234 -14.939320 3.158005 0.360104 31.624527 -4.004773 -2.393735 -16.940283 1.347027 1.216051 -15.086019 -6.336557 0.381801 31.810137 3.981495 2.236960 -17.034452 -1.623735 1.758821 
0.995535 51.785351 0.530455 0.000000 0.000000 0.000000 4.840377 0.853280 -0.030236 2.788463 -0.300640 -1.511656 12.462280 5.677999 -1.938908 3.165891 1.025998 -0.456318 3.036332 -11.371113 -1.472398 -72.130966 1.973672 15.730595 -11.204962 2.548641 1.664293 18.549603 -16.094101 -0.964649 -3.390873 12.278931 -0.905172 64.981323 -10.261508 16.782356 23.195068 1.538929 -0.126775 -13.272285 13.226200 3.122920 -15.319125 3.347793 0.343932 32.890526 -4.028674 -2.527718 -17.813042 1.334270 1.117279 -15.447868 -6.228734 0.387252 33.045925 4.010084 2.369825 -17.904531 -1.656762 1.565249 
0.873059 51.678795 0.685902 0.000000 0.000000 0.000000 5.557500 1.075730 -0.006888 3.465800 -0.324315 -1.851190 16.570000 7.832630 -2.504550 4.461480 1.856910 -0.554711 4.439170 -16.128555 -2.164260 -67.188301 2.063680 15.653300 -10.743200 3.183810 1.650420 19.220800 -19.758801 0.070852 -4.271950 15.602634 -1.516820 61.226700 -12.430000 16.940201 26.366100 1.694920 -0.615973 -15.942900 14.974300 4.772750 -15.490177 3.530274 0.318185 33.684605 -4.048974 -2.615730 -18.430218 1.331182 0.987380 -15.622291 -6.104184 0.374970 33.838058 4.048211 2.462842 -18.529295 -1.690087 1.364994 
0.732173 51.573841 0.818679 0.000000 0.000000 0.000000 6.040849 1.381966 0.055815 3.943056 -0.260997 -2.181542 19.983200 9.769304 -2.980160 5.552519 2.567053 -0.636898 6.041467 -19.213709 -2.631029 -62.507984 3.635891 15.576022 -12.002980 1.481946 1.342375 18.574919 -22.413488 1.621076 -4.853456 18.894865 -2.019579 57.281002 -13.421769 16.898312 27.375523 2.528308 -0.915717 -17.941408 16.631817 6.100765 -15.753591 3.740916 0.293695 34.616737 -4.060863 -2.721731 -19.096600 1.322360 0.847332 -15.848134 -5.947701 0.358526 34.701698 4.062977 2.544936 -19.165358 -1.705863 1.147658 
0.592780 51.470657 0.925772 0.000000 0.000000 0.000000 6.346214 1.729258 0.140984 4.267333 -0.134259 -2.478098 22.708847 11.390048 -3.359403 6.401832 3.140239 -0.699996 7.600691 -20.959377 -2.933753 -58.443451 5.955706 15.488337 -14.219121 -1.613475 0.867916 17.105764 -24.226635 3.391750 -5.202415 21.867195 -2.430397 53.571381 -13.561912 16.717672 26.948578 3.732185 -1.064892 -19.339828 18.111713 7.116391 -15.948458 3.943050 0.256535 35.323589 -4.068510 -2.790365 -19.606213 1.313555 0.695566 -16.040663 -5.785796 0.332417 35.408783 4.068208 2.612227 -19.672771 -1.734818 0.949300 
0.482388 51.376614 1.006280 0.000000 0.000000 0.000000 6.562670 2.060600 0.224980 4.513210 0.019815 -2.714970 24.818800 12.600500 -3.643170 6.982800 3.567430 -0.742126 8.805480 -21.904303 -3.166820 -55.383202 8.030060 15.378300 -16.348200 -4.785410 0.401107 15.490600 -25.515400 4.981710 -5.417810 24.140232 -2.780947 50.626499 -13.416100 16.494101 26.289499 4.930350 -1.144210 -20.305000 19.281799 7.860400 -16.220432 4.113298 0.224610 36.097771 -4.086332 -2.876875 -20.105625 1.309840 0.583587 -16.289013 -5.666212 0.316962 36.163948 4.079218 2.695860 -20.190239 -1.760706 0.770599 
0.421537 51.297508 1.060099 0.000000 0.000000 0.000000 6.761315 2.328961 0.288885 4.739429 0.170544 -2.871800 26.369043 13.342568 -3.834527 7.285092 3.845599 -0.763005 9.426753 -22.507460 -3.402529 -53.593075 9.103127 15.243454 -17.586367 -6.983904 0.080202 14.276221 -26.526947 6.076746 -5.585442 25.000000 -3.093467 48.847836 -13.445465 16.308849 26.340582 5.821304 -1.217155 -20.976408 20.044792 8.369830 -16.436218 4.222002 0.203459 36.723541 -4.120615 -2.937779 -20.507240 1.304002 0.528653 -16.503155 -5.611922 0.307645 36.771019 4.096009 2.769168 -20.581478 -1.771737 0.664759 
0.402901 51.232742 1.090287 0.000000 0.000000 0.000000 6.941342 2.527204 0.332679 4.941383 0.308842 -2.950330 27.352053 13.703218 -3.945224 7.363521 3.995754 -0.768736 9.564528 -22.908758 -3.624813 -52.848339 9.367995 15.119306 -18.088057 -8.227312 -0.099799 13.487617 -27.228416 6.710447 -5.738375 25.000000 -3.352441 48.128159 -13.692987 16.184944 26.996407 6.402341 -1.278305 -21.384096 20.443043 8.666779 -16.559032 4.253620 0.205618 37.057968 -4.110407 -2.980865 -20.722218 1.309242 0.522371 -16.633507 -5.593906 0.313471 37.125259 4.094742 2.787480 -20.796974 -1.773775 0.631666 
0.412185 51.180126 1.100700 0.000000 0.000000 0.000000 7.083969 2.658169 0.361068 5.098628 0.431027 -2.957829 27.744434 13.805683 -3.989188 7.289186 4.044910 -0.767022 9.401105 -23.168343 -3.795516 -52.801609 9.254993 15.050852 -18.247278 -8.801077 -0.179711 13.019313 -27.516951 7.003361 -5.896489 25.000000 -3.532914 48.233059 -14.097110 16.130852 27.889629 6.745458 -1.305007 -21.530760 20.553814 8.769609 -16.749826 4.258231 0.201834 37.488445 -4.130776 -3.022148 -20.947176 1.311155 0.554662 -16.808939 -5.623295 0.311905 37.526932 4.096485 2.849533 -21.022285 -1.775565 0.627758 
0.435094 51.137478 1.095194 0.000000 0.000000 0.000000 7.170412 2.724694 0.378756 5.190719 0.533415 -2.901568 27.522783 13.773196 -3.980342 7.133184 4.020082 -0.765561 9.118778 -23.346354 -3.876481 -53.105503 9.194444 15.083087 -18.458038 -8.990637 -0.200346 12.765839 -27.289684 7.076034 -6.079664 25.000000 -3.609931 48.928127 -14.596275 16.155039 28.652901 6.922646 -1.274612 -21.419086 20.454359 8.696686 -16.894785 4.237669 0.218327 37.802975 -4.122283 -3.064958 -21.123262 1.311977 0.605945 -16.961451 -5.665370 0.330897 37.839432 4.117184 2.881522 -21.188419 -1.781765 0.643473 
0.457336 51.102615 1.077622 0.000000 0.000000 0.000000 7.181887 2.729619 0.390447 5.197211 0.612321 -2.788816 26.663704 13.728991 -3.932611 6.966616 3.948287 -0.772055 8.899845 -23.502934 -3.829552 -53.412628 9.616672 15.261005 -19.114344 -9.081429 -0.202517 12.621725 -26.443756 7.049008 -6.307781 25.000000 -3.558538 49.978947 -15.128925 16.265968 28.918873 7.005899 -1.164469 -21.051769 20.221935 8.466372 -17.041224 4.213775 0.225559 38.058247 -4.120376 -3.094716 -21.230448 1.319658 0.637732 -17.123096 -5.705431 0.331164 38.123798 4.115724 2.923508 -21.306086 -1.781155 0.661246 
